<svg width="512" height="512" viewBox="0 0 512 512" fill="none" xmlns="http://www.w3.org/2000/svg">
  <rect width="512" height="512" rx="112" fill="#201A14"/>
  <rect x="86" y="64" width="270" height="360" rx="30" fill="#FFF8EE"/>
  <path d="M356 64L426 132V394C426 410.569 412.569 424 396 424H356V64Z" fill="#E1C59F"/>
  <path d="M356 64V116C356 132.569 369.431 146 386 146H426L356 64Z" fill="#C68C46"/>
  <path d="M143 170C143 160.611 150.611 153 160 153H285C294.389 153 302 160.611 302 170C302 179.389 294.389 187 285 187H160C150.611 187 143 179.389 143 170Z" fill="#2F271F"/>
  <path d="M143 237C143 227.611 150.611 220 160 220H269C278.389 220 286 227.611 286 237C286 246.389 278.389 254 269 254H160C150.611 254 143 246.389 143 237Z" fill="#2F271F"/>
  <path d="M143 305C143 295.611 150.611 288 160 288H227C236.389 288 244 295.611 244 305C244 314.389 236.389 322 227 322H160C150.611 322 143 314.389 143 305Z" fill="#2F271F"/>
  <path d="M140 382L193 305L246 382H222L193 338L164 382H140Z" fill="#C68C46"/>
  <path d="M260 382V305H285L322 351V305H347V382H323L285 336V382H260Z" fill="#C68C46"/>
</svg>
